<?xml version="1.0" encoding="UTF-8" standalone="no"?>
<!-- Created with Inkscape (http://www.inkscape.org/) -->

<svg
   xmlns:dc="http://purl.org/dc/elements/1.1/"
   xmlns:cc="http://creativecommons.org/ns#"
   xmlns:rdf="http://www.w3.org/1999/02/22-rdf-syntax-ns#"
   xmlns:svg="http://www.w3.org/2000/svg"
   xmlns="http://www.w3.org/2000/svg"
   xmlns:sodipodi="http://sodipodi.sourceforge.net/DTD/sodipodi-0.dtd"
   xmlns:inkscape="http://www.inkscape.org/namespaces/inkscape"
   width="84mm"
   height="84mm"
   viewBox="0 0 84 84"
   version="1.1"
   id="svg2235"
   inkscape:version="0.92.5 (2060ec1f9f, 2020-04-08)"
   sodipodi:docname="logo_loglines_blue.svg">
  <defs
     id="defs2229" />
  <sodipodi:namedview
     id="base"
     pagecolor="#ffffff"
     bordercolor="#666666"
     borderopacity="1.0"
     inkscape:pageopacity="0.0"
     inkscape:pageshadow="2"
     inkscape:zoom="0.98994949"
     inkscape:cx="-47.230318"
     inkscape:cy="95.28658"
     inkscape:document-units="mm"
     inkscape:current-layer="layer1"
     showgrid="false"
     fit-margin-top="0"
     fit-margin-left="0"
     fit-margin-right="0"
     fit-margin-bottom="0"
     inkscape:window-width="1920"
     inkscape:window-height="1016"
     inkscape:window-x="0"
     inkscape:window-y="27"
     inkscape:window-maximized="1" />
  <metadata
     id="metadata2232">
    <rdf:RDF>
      <cc:Work
         rdf:about="">
        <dc:format>image/svg+xml</dc:format>
        <dc:type
           rdf:resource="http://purl.org/dc/dcmitype/StillImage" />
        <dc:title></dc:title>
      </cc:Work>
    </rdf:RDF>
  </metadata>
  <g
     inkscape:label="Layer 1"
     inkscape:groupmode="layer"
     id="layer1"
     transform="translate(-0.71131206,-0.24405779)">
    <path
       style="fill:#0071c5;fill-opacity:1;stroke:none;stroke-width:8;stroke-linecap:round;stroke-linejoin:round;stroke-miterlimit:4;stroke-dasharray:none;stroke-opacity:1;paint-order:stroke markers fill"
       d="m 42.711042,1.4586143 a 40.785328,40.785328 0 0 0 -17.195849,3.8541 V 47.058414 c 0,1.2508 0.36917,2.331 1.10794,3.2407 0.78804,0.9097 1.724051,1.3647 2.807599,1.3647 h 13.667372 v 13.2184 H 28.101092 c -3.349089,0 -6.279879,-0.824 -8.791729,-2.4728 -2.51182,-1.7056 -4.457281,-3.9516 -5.836311,-6.7375 -1.379059,-2.7859 -2.068619,-5.8559 -2.068619,-9.2103 v -30.3 a 40.785328,40.785328 0 0 0 -9.4784898,26.0827 40.785328,40.785328 0 0 0 40.7850988,40.7851 40.785328,40.785328 0 0 0 25.611352,-9.0646 H 55.724732 c -1.94733,0 -3.661698,-0.423 -5.14337,-1.2697 -1.481659,-0.8466 -2.646148,-1.9687 -3.492809,-3.3657 -0.804339,-1.397 -1.206641,-2.942 -1.206641,-4.6353 0,-1.4817 0.35986,-2.8999 1.079532,-4.2546 0.719669,-1.397 1.71482,-2.5614 2.98482,-3.4928 l 13.017289,-9.1436 c 0.80433,-0.5927 1.397179,-1.228 1.778179,-1.9053 0.423331,-0.6773 0.635112,-1.4183 0.635112,-2.2226 0,-0.8467 -0.190532,-1.5451 -0.571532,-2.0955 -0.381,-0.5926 -0.91017,-1.0369 -1.5875,-1.3332 -0.635,-0.3387 -1.39718,-0.508 -2.286159,-0.508 h -13.208 v -10.2237 h 14.2875 c 2.878669,0 5.418881,0.6353 7.620209,1.9053 2.243672,1.27 4.000482,2.9631 5.270482,5.0798 1.31233,2.1167 1.968359,4.4876 1.968359,7.1122 0,2.6247 -0.550431,4.9526 -1.65105,6.9846 -1.058331,1.9897 -2.793921,3.7465 -5.206921,5.2705 l -10.287238,6.7314 c -0.127,0.042 -0.232621,0.1268 -0.317291,0.2537 -0.0847,0.085 -0.127129,0.1908 -0.127129,0.3178 0,0.2117 0.0637,0.3598 0.19069,0.4444 0.169328,0.085 0.381098,0.1266 0.635098,0.1266 h 17.205672 a 40.785328,40.785328 0 0 0 6.18464,-21.4968 A 40.785328,40.785328 0 0 0 42.711042,1.4586143 Z"
       id="circle1479"
       inkscape:connector-curvature="0"
       inkscape:export-xdpi="299"
       inkscape:export-ydpi="299" />
  </g>
</svg>
